<?xml version="1.0" encoding="UTF-8"?>
<svg xmlns="http://www.w3.org/2000/svg" width="720" height="228" viewBox="0 0 720 228" role="img" aria-label="Contextual retrieval, measured on the vector arm">
<rect x="0.5" y="0.5" width="719" height="227" rx="8" fill="#1a1a19" stroke="rgba(255,255,255,0.10)"/>
<text x="20" y="36" font-family="system-ui, -apple-system, 'Segoe UI', sans-serif" font-size="15" font-weight="600" fill="#ffffff" text-anchor="start">Contextual retrieval, measured on the vector arm</text>
<text x="20" y="56" font-family="system-ui, -apple-system, 'Segoe UI', sans-serif" font-size="12" font-weight="normal" fill="#898781" text-anchor="start">failure-rate@20 — lower is better</text>
<rect x="20" y="74" width="10" height="10" rx="2" fill="#3987e5"/>
<text x="35" y="83" font-family="system-ui, -apple-system, 'Segoe UI', sans-serif" font-size="12" font-weight="normal" fill="#c3c2b7" text-anchor="start">baseline index</text>
<rect x="171" y="74" width="10" height="10" rx="2" fill="#199e70"/>
<text x="186" y="83" font-family="system-ui, -apple-system, 'Segoe UI', sans-serif" font-size="12" font-weight="normal" fill="#c3c2b7" text-anchor="start">contextual index</text>
<line x1="210.0" y1="100" x2="210.0" y2="196" stroke="#383835" stroke-width="1"/>
<text x="210" y="214" font-family="system-ui, -apple-system, 'Segoe UI', sans-serif" font-size="11" font-weight="normal" fill="#898781" text-anchor="middle">0%</text>
<line x1="296.0" y1="100" x2="296.0" y2="196" stroke="#2c2c2a" stroke-width="1"/>
<text x="296" y="214" font-family="system-ui, -apple-system, 'Segoe UI', sans-serif" font-size="11" font-weight="normal" fill="#898781" text-anchor="middle">5%</text>
<line x1="382.0" y1="100" x2="382.0" y2="196" stroke="#2c2c2a" stroke-width="1"/>
<text x="382" y="214" font-family="system-ui, -apple-system, 'Segoe UI', sans-serif" font-size="11" font-weight="normal" fill="#898781" text-anchor="middle">10%</text>
<line x1="468.0" y1="100" x2="468.0" y2="196" stroke="#2c2c2a" stroke-width="1"/>
<text x="468" y="214" font-family="system-ui, -apple-system, 'Segoe UI', sans-serif" font-size="11" font-weight="normal" fill="#898781" text-anchor="middle">15%</text>
<line x1="554.0" y1="100" x2="554.0" y2="196" stroke="#2c2c2a" stroke-width="1"/>
<text x="554" y="214" font-family="system-ui, -apple-system, 'Segoe UI', sans-serif" font-size="11" font-weight="normal" fill="#898781" text-anchor="middle">20%</text>
<line x1="640.0" y1="100" x2="640.0" y2="196" stroke="#2c2c2a" stroke-width="1"/>
<text x="640" y="214" font-family="system-ui, -apple-system, 'Segoe UI', sans-serif" font-size="11" font-weight="normal" fill="#898781" text-anchor="middle">25%</text>
<text x="200" y="124" font-family="system-ui, -apple-system, 'Segoe UI', sans-serif" font-size="13" font-weight="normal" fill="#c3c2b7" text-anchor="end">book-only controlled (n=12)</text>
<path d="M210.0,100.0 h288.4 a4,4 0 0 1 4,4 v10.0 a4,4 0 0 1 -4,4 h-288.4 z" fill="#3987e5"/>
<text x="508" y="113" font-family="system-ui, -apple-system, 'Segoe UI', sans-serif" font-size="12" font-weight="normal" fill="#c3c2b7" text-anchor="start">17%</text>
<path d="M210.0,121.0 h133.6 a4,4 0 0 1 4,4 v10.0 a4,4 0 0 1 -4,4 h-133.6 z" fill="#199e70"/>
<text x="354" y="134" font-family="system-ui, -apple-system, 'Segoe UI', sans-serif" font-size="12" font-weight="normal" fill="#c3c2b7" text-anchor="start">8%</text>
<text x="200" y="180" font-family="system-ui, -apple-system, 'Segoe UI', sans-serif" font-size="13" font-weight="normal" fill="#c3c2b7" text-anchor="end">full corpus (n=15)</text>
<path d="M210.0,157.0 h340.0 a4,4 0 0 1 4,4 v10.0 a4,4 0 0 1 -4,4 h-340.0 z" fill="#3987e5"/>
<text x="560" y="170" font-family="system-ui, -apple-system, 'Segoe UI', sans-serif" font-size="12" font-weight="normal" fill="#c3c2b7" text-anchor="start">20%</text>
<path d="M210.0,178.0 h225.3 a4,4 0 0 1 4,4 v10.0 a4,4 0 0 1 -4,4 h-225.3 z" fill="#199e70"/>
<text x="445" y="191" font-family="system-ui, -apple-system, 'Segoe UI', sans-serif" font-size="12" font-weight="normal" fill="#c3c2b7" text-anchor="start">13%</text>
</svg>
