<?xml version="1.0" encoding="UTF-8"?>
<svg xmlns="http://www.w3.org/2000/svg" width="720" height="232" viewBox="0 0 720 232" role="img" aria-label="Where the ~20 seconds go">
<rect x="0.5" y="0.5" width="719" height="231" rx="8" fill="#1a1a19" stroke="rgba(255,255,255,0.10)"/>
<text x="20" y="36" font-family="system-ui, -apple-system, 'Segoe UI', sans-serif" font-size="15" font-weight="600" fill="#ffffff" text-anchor="start">Where the ~20 seconds go</text>
<text x="20" y="56" font-family="system-ui, -apple-system, 'Segoe UI', sans-serif" font-size="12" font-weight="normal" fill="#898781" text-anchor="start">P50 per stage, CPU laptop, warm caches — the P95 verification tail reaches 90 s</text>
<line x1="190.0" y1="74" x2="190.0" y2="200" stroke="#383835" stroke-width="1"/>
<text x="190" y="218" font-family="system-ui, -apple-system, 'Segoe UI', sans-serif" font-size="11" font-weight="normal" fill="#898781" text-anchor="middle">0 s</text>
<line x1="302.5" y1="74" x2="302.5" y2="200" stroke="#2c2c2a" stroke-width="1"/>
<text x="302" y="218" font-family="system-ui, -apple-system, 'Segoe UI', sans-serif" font-size="11" font-weight="normal" fill="#898781" text-anchor="middle">2 s</text>
<line x1="415.0" y1="74" x2="415.0" y2="200" stroke="#2c2c2a" stroke-width="1"/>
<text x="415" y="218" font-family="system-ui, -apple-system, 'Segoe UI', sans-serif" font-size="11" font-weight="normal" fill="#898781" text-anchor="middle">4 s</text>
<line x1="527.5" y1="74" x2="527.5" y2="200" stroke="#2c2c2a" stroke-width="1"/>
<text x="528" y="218" font-family="system-ui, -apple-system, 'Segoe UI', sans-serif" font-size="11" font-weight="normal" fill="#898781" text-anchor="middle">6 s</text>
<line x1="640.0" y1="74" x2="640.0" y2="200" stroke="#2c2c2a" stroke-width="1"/>
<text x="640" y="218" font-family="system-ui, -apple-system, 'Segoe UI', sans-serif" font-size="11" font-weight="normal" fill="#898781" text-anchor="middle">8 s</text>
<text x="180" y="87" font-family="system-ui, -apple-system, 'Segoe UI', sans-serif" font-size="13" font-weight="normal" fill="#c3c2b7" text-anchor="end">hybrid retrieval</text>
<path d="M190.0,74.0 h74.8 a4,4 0 0 1 4,4 v10.0 a4,4 0 0 1 -4,4 h-74.8 z" fill="#3987e5"/>
<text x="275" y="87" font-family="system-ui, -apple-system, 'Segoe UI', sans-serif" font-size="12" font-weight="normal" fill="#c3c2b7" text-anchor="start">1.4 s</text>
<text x="180" y="123" font-family="system-ui, -apple-system, 'Segoe UI', sans-serif" font-size="13" font-weight="normal" fill="#c3c2b7" text-anchor="end">cross-encoder rerank</text>
<path d="M190.0,110.0 h344.8 a4,4 0 0 1 4,4 v10.0 a4,4 0 0 1 -4,4 h-344.8 z" fill="#3987e5"/>
<text x="545" y="123" font-family="system-ui, -apple-system, 'Segoe UI', sans-serif" font-size="12" font-weight="normal" fill="#c3c2b7" text-anchor="start">6.2 s</text>
<text x="180" y="159" font-family="system-ui, -apple-system, 'Segoe UI', sans-serif" font-size="13" font-weight="normal" fill="#c3c2b7" text-anchor="end">generation (Gemini Flash)</text>
<path d="M190.0,146.0 h237.9 a4,4 0 0 1 4,4 v10.0 a4,4 0 0 1 -4,4 h-237.9 z" fill="#3987e5"/>
<text x="438" y="159" font-family="system-ui, -apple-system, 'Segoe UI', sans-serif" font-size="12" font-weight="normal" fill="#c3c2b7" text-anchor="start">4.3 s</text>
<text x="180" y="195" font-family="system-ui, -apple-system, 'Segoe UI', sans-serif" font-size="13" font-weight="normal" fill="#c3c2b7" text-anchor="end">NLI verification</text>
<path d="M190.0,182.0 h434.8 a4,4 0 0 1 4,4 v10.0 a4,4 0 0 1 -4,4 h-434.8 z" fill="#3987e5"/>
<text x="635" y="195" font-family="system-ui, -apple-system, 'Segoe UI', sans-serif" font-size="12" font-weight="normal" fill="#c3c2b7" text-anchor="start">7.8 s</text>
</svg>
