<?xml version="1.0" encoding="UTF-8"?>
<svg xmlns="http://www.w3.org/2000/svg" width="720" height="285" viewBox="0 0 720 285" role="img" aria-label="Retrieval quality by configuration">
<rect x="0.5" y="0.5" width="719" height="284" rx="8" fill="#fcfcfb" stroke="rgba(11,11,11,0.10)"/>
<text x="20" y="36" font-family="system-ui, -apple-system, 'Segoe UI', sans-serif" font-size="15" font-weight="600" fill="#0b0b0b" text-anchor="start">Retrieval quality by configuration</text>
<text x="20" y="56" font-family="system-ui, -apple-system, 'Segoe UI', sans-serif" font-size="12" font-weight="normal" fill="#898781" text-anchor="start">MRR on the hardened golden set (n=15), baseline index — higher is better</text>
<rect x="20" y="74" width="10" height="10" rx="2" fill="#2a78d6"/>
<text x="35" y="83" font-family="system-ui, -apple-system, 'Segoe UI', sans-serif" font-size="12" font-weight="normal" fill="#52514e" text-anchor="start">no rerank</text>
<rect x="131" y="74" width="10" height="10" rx="2" fill="#1baf7a"/>
<text x="146" y="83" font-family="system-ui, -apple-system, 'Segoe UI', sans-serif" font-size="12" font-weight="normal" fill="#52514e" text-anchor="start">+ cross-encoder rerank</text>
<line x1="90.0" y1="100" x2="90.0" y2="253" stroke="#c3c2b7" stroke-width="1"/>
<text x="90" y="271" font-family="system-ui, -apple-system, 'Segoe UI', sans-serif" font-size="11" font-weight="normal" fill="#898781" text-anchor="middle">0.0</text>
<line x1="227.5" y1="100" x2="227.5" y2="253" stroke="#e1e0d9" stroke-width="1"/>
<text x="228" y="271" font-family="system-ui, -apple-system, 'Segoe UI', sans-serif" font-size="11" font-weight="normal" fill="#898781" text-anchor="middle">0.2</text>
<line x1="365.0" y1="100" x2="365.0" y2="253" stroke="#e1e0d9" stroke-width="1"/>
<text x="365" y="271" font-family="system-ui, -apple-system, 'Segoe UI', sans-serif" font-size="11" font-weight="normal" fill="#898781" text-anchor="middle">0.4</text>
<line x1="502.5" y1="100" x2="502.5" y2="253" stroke="#e1e0d9" stroke-width="1"/>
<text x="502" y="271" font-family="system-ui, -apple-system, 'Segoe UI', sans-serif" font-size="11" font-weight="normal" fill="#898781" text-anchor="middle">0.6</text>
<line x1="640.0" y1="100" x2="640.0" y2="253" stroke="#e1e0d9" stroke-width="1"/>
<text x="640" y="271" font-family="system-ui, -apple-system, 'Segoe UI', sans-serif" font-size="11" font-weight="normal" fill="#898781" text-anchor="middle">0.8</text>
<text x="80" y="124" font-family="system-ui, -apple-system, 'Segoe UI', sans-serif" font-size="13" font-weight="normal" fill="#52514e" text-anchor="end">bm25</text>
<path d="M90.0,100.0 h385.5 a4,4 0 0 1 4,4 v10.0 a4,4 0 0 1 -4,4 h-385.5 z" fill="#2a78d6"/>
<text x="485" y="113" font-family="system-ui, -apple-system, 'Segoe UI', sans-serif" font-size="12" font-weight="normal" fill="#52514e" text-anchor="start">0.567</text>
<path d="M90.0,121.0 h475.3 a4,4 0 0 1 4,4 v10.0 a4,4 0 0 1 -4,4 h-475.3 z" fill="#1baf7a"/>
<text x="575" y="134" font-family="system-ui, -apple-system, 'Segoe UI', sans-serif" font-size="12" font-weight="normal" fill="#52514e" text-anchor="start">0.697</text>
<text x="80" y="180" font-family="system-ui, -apple-system, 'Segoe UI', sans-serif" font-size="13" font-weight="normal" fill="#52514e" text-anchor="end">vector</text>
<path d="M90.0,157.0 h363.8 a4,4 0 0 1 4,4 v10.0 a4,4 0 0 1 -4,4 h-363.8 z" fill="#2a78d6"/>
<text x="464" y="170" font-family="system-ui, -apple-system, 'Segoe UI', sans-serif" font-size="12" font-weight="normal" fill="#52514e" text-anchor="start">0.535</text>
<path d="M90.0,178.0 h469.6 a4,4 0 0 1 4,4 v10.0 a4,4 0 0 1 -4,4 h-469.6 z" fill="#1baf7a"/>
<text x="570" y="191" font-family="system-ui, -apple-system, 'Segoe UI', sans-serif" font-size="12" font-weight="normal" fill="#52514e" text-anchor="start">0.689</text>
<text x="80" y="238" font-family="system-ui, -apple-system, 'Segoe UI', sans-serif" font-size="13" font-weight="normal" fill="#52514e" text-anchor="end">hybrid</text>
<path d="M90.0,214.0 h478.8 a4,4 0 0 1 4,4 v10.0 a4,4 0 0 1 -4,4 h-478.8 z" fill="#2a78d6"/>
<text x="579" y="227" font-family="system-ui, -apple-system, 'Segoe UI', sans-serif" font-size="12" font-weight="normal" fill="#52514e" text-anchor="start">0.702</text>
<path d="M90.0,235.0 h469.6 a4,4 0 0 1 4,4 v10.0 a4,4 0 0 1 -4,4 h-469.6 z" fill="#1baf7a"/>
<text x="570" y="248" font-family="system-ui, -apple-system, 'Segoe UI', sans-serif" font-size="12" font-weight="normal" fill="#52514e" text-anchor="start">0.689</text>
</svg>
